<?xml version="1.0" encoding="utf-8"?>
<!-- Generator: Adobe Illustrator 25.4.1, SVG Export Plug-In . SVG Version: 6.00 Build 0)  -->
<svg version="1.1" id="Layer_1" xmlns="http://www.w3.org/2000/svg" xmlns:xlink="http://www.w3.org/1999/xlink" x="0px" y="0px"
	 viewBox="0 0 100 100" style="enable-background:new 0 0 100 100;" xml:space="preserve">
<style type="text/css">
	.st0{fill:#222D5A;}
	.st1{fill:#903373;}
</style>
<g>
	<g>
		<path class="st0" d="M4.2,89.9l-0.1-0.7h0C3.8,89.6,3.1,90,2.3,90c-1.2,0-1.8-0.8-1.8-1.7c0-1.4,1.2-2.1,3.4-2.1v-0.1
			c0-0.5-0.1-1.3-1.3-1.3c-0.5,0-1.1,0.2-1.5,0.4L1,84.5C1.5,84.2,2.1,84,2.9,84C4.6,84,5,85.2,5,86.4v2.1c0,0.5,0,1,0.1,1.4H4.2z
			 M4,86.9c-1.1,0-2.4,0.2-2.4,1.3c0,0.7,0.5,1,1,1c0.7,0,1.2-0.5,1.4-1C4,88.2,4,88,4,87.9V86.9z"/>
		<path class="st0" d="M18.3,82.5c0,0.4-0.2,0.6-0.7,0.6c-0.4,0-0.6-0.3-0.6-0.6c0-0.4,0.3-0.7,0.7-0.7C18,81.9,18.3,82.1,18.3,82.5
			z M17.1,89.9v-5.7h1v5.7H17.1z"/>
		<path class="st0" d="M30.3,85.9c0-0.7,0-1.3,0-1.8h0.9l0,1.1h0c0.3-0.8,0.9-1.3,1.6-1.3c0.1,0,0.2,0,0.3,0v1c-0.1,0-0.2,0-0.4,0
			c-0.7,0-1.3,0.6-1.4,1.3c0,0.1,0,0.3,0,0.5v3.1h-1V85.9z"/>
		<path class="st0" d="M45.3,84.1l0.8,2.9c0.2,0.6,0.3,1.2,0.4,1.8h0c0.1-0.6,0.3-1.2,0.5-1.8l0.9-2.9h0.9l0.9,2.9
			c0.2,0.7,0.4,1.3,0.5,1.9h0c0.1-0.6,0.2-1.2,0.4-1.9l0.8-2.9h1l-1.8,5.7h-0.9l-0.9-2.7c-0.2-0.6-0.4-1.2-0.5-1.9h0
			c-0.1,0.7-0.3,1.3-0.5,1.9l-0.9,2.7h-0.9l-1.7-5.7H45.3z"/>
		<path class="st0" d="M67.1,89.9L67,89.2h0C66.7,89.6,66,90,65.2,90c-1.2,0-1.8-0.8-1.8-1.7c0-1.4,1.2-2.1,3.4-2.1v-0.1
			c0-0.5-0.1-1.3-1.3-1.3c-0.5,0-1.1,0.2-1.5,0.4l-0.2-0.7c0.5-0.3,1.2-0.5,1.9-0.5c1.8,0,2.2,1.2,2.2,2.4v2.1c0,0.5,0,1,0.1,1.4
			H67.1z M66.9,86.9c-1.1,0-2.4,0.2-2.4,1.3c0,0.7,0.4,1,1,1c0.7,0,1.2-0.5,1.4-1c0-0.1,0.1-0.2,0.1-0.3V86.9z"/>
		<path class="st0" d="M80.3,84.1l1.3,3.4c0.1,0.4,0.3,0.8,0.4,1.2h0c0.1-0.3,0.2-0.8,0.4-1.2l1.1-3.4h1.1L83,88.2
			c-0.7,2-1.3,3-2,3.6c-0.5,0.5-1,0.6-1.3,0.7l-0.3-0.9c0.3-0.1,0.6-0.2,0.9-0.5c0.3-0.2,0.6-0.6,0.9-1.2c0-0.1,0.1-0.2,0.1-0.2
			s0-0.1-0.1-0.3l-2.1-5.3H80.3z"/>
		<path class="st0" d="M95.9,88.8c0.3,0.2,0.9,0.4,1.4,0.4c0.8,0,1.1-0.4,1.1-0.9c0-0.5-0.3-0.8-1.1-1.1c-1-0.4-1.5-0.9-1.5-1.6
			c0-0.9,0.7-1.7,2-1.7c0.6,0,1.1,0.2,1.4,0.4l-0.3,0.8c-0.2-0.1-0.6-0.3-1.2-0.3c-0.6,0-1,0.4-1,0.8c0,0.5,0.3,0.7,1.1,1
			c1,0.4,1.5,0.9,1.5,1.7c0,1-0.8,1.7-2.1,1.7c-0.6,0-1.2-0.2-1.6-0.4L95.9,88.8z"/>
	</g>
	<g>
		<polygon class="st0" points="4.5,76 0.5,76 0.5,56.2 7,56.2 12.5,72.8 17.8,56.2 24.3,56.2 24.3,76 20.2,76 20.2,59.8 15,76 
			9.8,76 4.5,59.5 		"/>
		<path class="st0" d="M32.2,59.4l-0.1,13.2h15.8V76H28.1V56.2h19.8v3.4L32.2,59.4z M47,64.2H34.6v3.5H47V64.2z"/>
		<path class="st0" d="M55.9,76h-4.1V56.2h4.1V76z M69.6,56.2v8.1H58.3v3.4h11.3V76h4.1V56.2H69.6z"/>
		<path class="st0" d="M77.6,76V56.2h13.7c0,0,8.1,0.8,8.1,6.4s-6,7-6.3,7l6.3,6.3h-6l-5.9-5.9H84v-3.5h7.5c2,0,3.6-1.6,3.6-3.6v0
			c0-2-1.6-3.6-3.6-3.6h-10V76L77.6,76z"/>
	</g>
	<path class="st1" d="M0.8,7.5h6.7c0,0,17.4,10.9,18,11.3s11,6.7,11.4,7s5.8,3.1,12.6,3.8c6.8,0.6,12.7-0.7,15.4-1.6
		s12.6-6.2,16.2-9l18.4,11.5c0,0-4.8,4.4-16.1,7.9s-22.9,2.1-29.7,0S42.6,33.7,39.9,32C37.3,30.4,0.8,7.5,0.8,7.5z"/>
</g>
<g>
</g>
<g>
</g>
<g>
</g>
<g>
</g>
<g>
</g>
<g>
</g>
</svg>
